<?xml version="1.0" ?><!DOCTYPE svg  PUBLIC '-//W3C//DTD SVG 1.1//EN'  'http://www.w3.org/Graphics/SVG/1.1/DTD/svg11.dtd'><svg height="512px" style="enable-background:new 0 0 512 512;" version="1.1" viewBox="0 0 512 512" width="512px" xml:space="preserve" xmlns="http://www.w3.org/2000/svg" xmlns:xlink="http://www.w3.org/1999/xlink"><g id="_x31_33-amd"><g><g><g><path d="M196.365,106.454l-89.474,46.803v162.538h165.974l42.797-89.72H196.365V106.454z       M196.365,106.454" style="fill:#5ACF5F;"/><path d="M106.891,16.735l89.474,89.719h119.297v119.621l89.48,89.72V16.735H106.891z M106.891,16.735" style="fill:#5ACF5F;"/><path d="M420.053,345.7h-59.648c-8.236,0-14.916,6.698-14.916,14.949V480.28      c0,8.253,6.68,14.952,14.916,14.952h59.648c41.129,0,74.564-33.525,74.564-74.767S461.182,345.7,420.053,345.7L420.053,345.7z       M420.053,465.325h-44.738v-89.72h44.738c24.666,0,44.738,20.129,44.738,44.86C464.791,445.193,444.719,465.325,420.053,465.325      L420.053,465.325z M420.053,465.325" style="fill:#5E7B89;"/><g><path d="M306.447,346.841c-5.512-2.309-11.959-1.053-16.258,3.224l-49.092,49.257l-49.086-49.224       c-4.299-4.276-10.652-5.532-16.257-3.235c-5.578,2.273-9.215,7.753-9.215,13.787V480.28c0,8.253,6.68,14.952,14.912,14.952       c8.234,0,14.914-6.699,14.914-14.952v-83.53l34.178,34.271c5.816,5.833,15.275,5.833,21.088,0l34.209-34.271v83.53       c0,8.253,6.68,14.952,14.912,14.952c8.23,0,14.91-6.699,14.91-14.952V360.649C315.662,354.615,312.029,349.136,306.447,346.841       L306.447,346.841z M306.447,346.841" style="fill:#5E7B89;"/><path d="M91.018,355.39c-4.35-11.692-23.559-11.692-27.941,0L18.334,475.009       c-2.889,7.749,1.018,16.358,8.713,19.263c7.693,2.991,16.313-1.019,19.205-8.734l7.608-20.212h46.438l7.543,20.212       c2.236,5.985,7.936,9.695,13.959,9.695c1.758,0,3.516-0.301,5.25-0.961c7.692-2.904,11.602-11.514,8.71-19.263L91.018,355.39z        M65.04,435.414l12.02-32.175l12.023,32.175H65.04z M65.04,435.414" style="fill:#5E7B89;"/></g></g></g></g></g><g id="Layer_1"/></svg>