<?xml version="1.0" ?><!DOCTYPE svg  PUBLIC '-//W3C//DTD SVG 1.1//EN'  'http://www.w3.org/Graphics/SVG/1.1/DTD/svg11.dtd'><svg height="512px" style="enable-background:new 0 0 512 512;" version="1.1" viewBox="0 0 512 512" width="512px" xml:space="preserve" xmlns="http://www.w3.org/2000/svg" xmlns:xlink="http://www.w3.org/1999/xlink"><g id="_x31_29-ati"><g><g><g><g><path d="M236.281,122.946c-11.721-4.394-24.873-0.925-32.988,8.583L24.344,340.871       c-10.707,12.531-9.277,31.402,3.219,42.137c5.641,4.88,12.531,7.237,19.422,7.237c8.408,0,16.758-3.529,22.664-10.466       l126.458-147.944v128.509c0,16.537,13.363,29.901,29.822,29.901c16.467,0,29.83-13.364,29.83-29.901V150.996       C255.76,138.498,247.971,127.314,236.281,122.946L236.281,122.946z M236.281,122.946" style="fill:#F84437;"/></g><path d="M464.533,121.092c-16.49,0-29.826,13.4-29.826,29.904v194.391      c0,16.541,13.336,29.905,29.826,29.905c16.496,0,29.828-13.364,29.828-29.905V150.996      C494.361,134.492,481.029,121.092,464.533,121.092L464.533,121.092z M464.533,121.092" style="fill:#F84437;"/><path d="M404.885,121.092H285.582c-16.463,0-29.822,13.4-29.822,29.904      c0,16.509,13.359,29.908,29.822,29.908h29.828v179.439c0,16.537,13.332,29.901,29.824,29.901s29.822-13.364,29.822-29.901      V180.904h29.828c16.494,0,29.822-13.399,29.822-29.908C434.707,134.492,421.379,121.092,404.885,121.092L404.885,121.092z       M404.885,121.092" style="fill:#F84437;"/><path d="M196.107,315.479c0,16.518-13.355,29.907-29.826,29.907c-16.472,0-29.827-13.39-29.827-29.907      c0-16.514,13.355-29.901,29.827-29.901C182.752,285.578,196.107,298.966,196.107,315.479L196.107,315.479z M196.107,315.479" style="fill:#F84437;"/><path d="M479.449,150.996c0,8.26-6.68,14.953-14.916,14.953s-14.912-6.693-14.912-14.953      c0-8.255,6.676-14.948,14.912-14.948S479.449,142.741,479.449,150.996L479.449,150.996z M479.449,150.996" style="fill:#FCFCFC;"/></g></g></g></g><g id="Layer_1"/></svg>