<?xml version="1.0" ?><!DOCTYPE svg  PUBLIC '-//W3C//DTD SVG 1.1//EN'  'http://www.w3.org/Graphics/SVG/1.1/DTD/svg11.dtd'><svg height="512px" style="enable-background:new 0 0 512 512;" version="1.1" viewBox="0 0 512 512" width="512px" xml:space="preserve" xmlns="http://www.w3.org/2000/svg" xmlns:xlink="http://www.w3.org/1999/xlink"><g id="_x31_26-beatspill_x2C__beats_pill"><g><g><g><path d="M315.648,256c0,33.033-26.705,59.813-59.646,59.813c-32.945,0-59.65-26.779-59.65-59.813      s26.705-59.813,59.65-59.813C288.943,196.188,315.648,222.967,315.648,256L315.648,256z M315.648,256" style="fill:#E81D67;"/><path d="M256.002,16.75c-20.641,0-40.563,2.901-59.65,7.837v128.416      c17.625-10.286,37.82-16.628,59.65-16.628c65.793,0,119.297,53.654,119.297,119.625c0,65.973-53.504,119.621-119.297,119.621      c-65.795,0-119.303-53.648-119.303-119.621V49.019C65.449,90.414,17.397,167.511,17.397,256      c0,132.127,106.833,239.25,238.605,239.25c131.77,0,238.602-107.123,238.602-239.25      C494.604,123.872,387.771,16.75,256.002,16.75L256.002,16.75z M256.002,16.75" style="fill:#E81D67;"/></g></g></g></g><g id="Layer_1"/></svg>