<?xml version="1.0" ?><!DOCTYPE svg  PUBLIC '-//W3C//DTD SVG 1.1//EN'  'http://www.w3.org/Graphics/SVG/1.1/DTD/svg11.dtd'><svg height="512px" style="enable-background:new 0 0 512 512;" version="1.1" viewBox="0 0 512 512" width="512px" xml:space="preserve" xmlns="http://www.w3.org/2000/svg" xmlns:xlink="http://www.w3.org/1999/xlink"><g id="_x31_24-blackberry"><g><g><g><path d="M120.592,91.516H60.939l-28.626,89.721h88.279c24.698,0,44.737-20.097,44.737-44.861      C165.33,111.616,145.291,91.516,120.592,91.516L120.592,91.516z M120.592,91.516" style="fill:#516874;"/><path d="M299.543,91.516h-59.648l-28.637,89.721h88.285c24.693,0,44.736-20.097,44.736-44.861      C344.279,111.616,324.236,91.516,299.543,91.516L299.543,91.516z M299.543,91.516" style="fill:#516874;"/><path d="M269.715,211.142h-59.646l-28.631,89.719h88.277c24.701,0,44.744-20.1,44.744-44.86      C314.459,231.237,294.416,211.142,269.715,211.142L269.715,211.142z M269.715,211.142" style="fill:#516874;"/><path d="M449.861,151.327h-59.648l-28.631,89.724h88.279c24.699,0,44.742-20.103,44.742-44.863      C494.604,171.425,474.561,151.327,449.861,151.327L449.861,151.327z M449.861,151.327" style="fill:#516874;"/><path d="M420.039,285.903h-59.654l-28.629,89.72h88.283c24.693,0,44.738-20.097,44.738-44.857      C464.777,306.003,444.732,285.903,420.039,285.903L420.039,285.903z M420.039,285.903" style="fill:#516874;"/><path d="M241.09,330.766h-59.652l-28.637,89.72h88.29c24.689,0,44.73-20.1,44.73-44.862      C285.82,350.862,265.779,330.766,241.09,330.766L241.09,330.766z M241.09,330.766" style="fill:#516874;"/><path d="M105.681,211.142H46.029L17.397,300.86h88.284c24.694,0,44.739-20.1,44.739-44.86      C150.42,231.237,130.375,211.142,105.681,211.142L105.681,211.142z M105.681,211.142" style="fill:#516874;"/></g></g></g></g><g id="Layer_1"/></svg>