<?xml version="1.0" ?><!DOCTYPE svg  PUBLIC '-//W3C//DTD SVG 1.1//EN'  'http://www.w3.org/Graphics/SVG/1.1/DTD/svg11.dtd'><svg height="512px" style="enable-background:new 0 0 512 512;" version="1.1" viewBox="0 0 512 512" width="512px" xml:space="preserve" xmlns="http://www.w3.org/2000/svg" xmlns:xlink="http://www.w3.org/1999/xlink"><g id="_x31_20-disqus"><g><g><g><path d="M264.705,480.294c-56.695,0-108.591-20.039-148.646-53.202l-98.662,12.945l38.053-91.035      c-13.359-28.351-20.661-59.84-20.661-93.004c0-123.901,102.983-224.292,229.889-224.292      c127.088,0,229.926,100.391,229.926,224.292C494.604,379.892,391.766,480.294,264.705,480.294L264.705,480.294z       M264.705,480.294" style="fill:#2299F8;"/><path d="M266.172,136.373h-84.734v239.246h83.539c79.037,0,125.236-51.287,125.236-120.277v-0.632      C390.213,185.745,344.613,136.373,266.172,136.373L266.172,136.373z M327.668,256.149c0,38.756-24.154,60.617-60.605,60.617      h-24.75V195.051h24.75c36.451,0,60.605,22.188,60.605,60.469V256.149z M327.668,256.149" style="fill:#FCFCFC;"/></g></g></g></g><g id="Layer_1"/></svg>