<?xml version="1.0" ?><!DOCTYPE svg  PUBLIC '-//W3C//DTD SVG 1.1//EN'  'http://www.w3.org/Graphics/SVG/1.1/DTD/svg11.dtd'><svg height="512px" style="enable-background:new 0 0 512 512;" version="1.1" viewBox="0 0 512 512" width="512px" xml:space="preserve" xmlns="http://www.w3.org/2000/svg" xmlns:xlink="http://www.w3.org/1999/xlink"><g id="_x31_17-Evernote"><g><g><g><g><path d="M446.365,100.029c-3.582-19.112-15.006-28.529-25.322-32.209       c-11.15-4.012-33.73-8.166-62.096-11.483c-22.814-2.696-49.658-2.453-65.887-1.979c-1.936-13.247-11.301-25.354-21.736-29.545       c-27.857-11.152-70.932-8.461-81.965-5.381c-8.766,2.452-18.494,7.45-23.92,15.165c-3.638,5.142-5.963,11.751-5.996,20.962       c0,5.204,0.154,17.494,0.272,28.411c0.149,10.944,0.266,20.755,0.266,20.812c0,9.745-7.964,17.677-17.808,17.71H96.991       c-9.632,0-17.001,1.608-22.606,4.153c-5.635,2.54-9.638,5.982-12.648,10.017c-6.023,8.049-7.068,18.005-7.068,28.144       c0,0,0.09,8.284,2.092,24.313c1.668,12.414,15.205,99.107,28.063,125.485c4.978,10.262,8.292,14.534,18.104,19.056       c21.829,9.295,71.671,19.615,95.023,22.569c23.326,2.963,37.967,9.215,46.676-8.967c0.094-0.027,1.789-4.514,4.182-11.095       c7.568-22.818,8.615-43.063,8.615-57.717c0-1.495,2.207-1.557,2.207,0c0,10.344-1.969,46.954,25.828,56.759       c10.977,3.859,33.764,7.328,56.879,10.019c20.906,2.392,36.088,10.589,36.088,63.938c0,32.479-6.861,36.935-42.713,36.935       c-29.082,0-40.143,0.747-40.143-22.217c0-18.544,18.459-16.605,32.152-16.605c6.111,0,1.668-4.512,1.668-15.963       c0-11.396,7.156-17.978,0.389-18.154c-47.301-1.285-75.131-0.059-75.131,58.766c-0.029,53.443,20.521,63.339,87.656,63.339       c52.641,0,71.199-1.701,92.934-68.781c4.299-13.252,14.705-53.654,21-121.447C460.23,262.116,452.479,132.681,446.365,100.029       L446.365,100.029z M354.588,243.097c-6.496-0.235-12.764,0.182-18.576,1.109c1.641-13.161,7.098-29.339,26.484-28.683       c21.475,0.751,24.455,20.907,24.549,34.575C378.008,246.093,366.791,243.518,354.588,243.097L354.588,243.097z M94.9,109.444       h45.188c2.598,0,4.684-2.089,4.684-4.634c0,0-0.534-38.518-0.534-49.191v-0.122c0-8.79,1.847-16.449,5.096-22.876l1.552-2.873       c-0.178,0.029-0.356,0.123-0.502,0.273l-87.75,86.512c-0.178,0.151-0.268,0.327-0.328,0.512       c1.818-0.901,4.299-2.129,4.65-2.274C74.562,111.307,83.81,109.444,94.9,109.444L94.9,109.444z M94.9,109.444" style="fill:#5ACF5F;"/></g></g></g></g></g><g id="Layer_1"/></svg>