<?xml version="1.0" ?><!DOCTYPE svg  PUBLIC '-//W3C//DTD SVG 1.1//EN'  'http://www.w3.org/Graphics/SVG/1.1/DTD/svg11.dtd'><svg height="512px" style="enable-background:new 0 0 512 512;" version="1.1" viewBox="0 0 512 512" width="512px" xml:space="preserve" xmlns="http://www.w3.org/2000/svg" xmlns:xlink="http://www.w3.org/1999/xlink"><g id="_x31_16-feedburner"><g><g><g><path d="M409.955,331.211c1.342-7.12,2.27-14.297,2.297-21.47      c0.361-89.928-48.613-125.005-100.48-154.973c15.033,78.773-33.555,127.397-93.891,110.354      c88.189-144-40.144-144.362-0.924-248.373C156.62,59.519,96.104,179.233,96.315,266.612c0.029,23.091,2.357,44.536,6.68,64.183      c-43.424,17.374-70.683,41.957-70.683,69.233c0,52.454,100.481,95.222,223.688,95.222c123.234,0,223.688-42.768,223.688-95.222      C479.688,372.963,452.785,348.56,409.955,331.211L409.955,331.211z M170.401,216.911      c-16.674,75.093,28.031,131.049,71.134,131.588c48.584,0.36,77.395-44.947,91.113-104.372      c25.83,19.679,39.16,47.1,40.861,75.066c-0.061-0.033-0.117-0.033-0.211-0.066c1.975,31.679-28.541,116.902-126.432,116.902      c-87.355,0-112.438-62.197-110.887-116.213c-0.089,0.033-0.116,0.033-0.21,0.061      C136.637,289.792,146.986,255.04,170.401,216.911L170.401,216.911z M170.401,216.911" style="fill:#FFC107;"/></g></g></g></g><g id="Layer_1"/></svg>