<?xml version="1.0" ?><!DOCTYPE svg  PUBLIC '-//W3C//DTD SVG 1.1//EN'  'http://www.w3.org/Graphics/SVG/1.1/DTD/svg11.dtd'><svg height="512px" style="enable-background:new 0 0 512 512;" version="1.1" viewBox="0 0 512 512" width="512px" xml:space="preserve" xmlns="http://www.w3.org/2000/svg" xmlns:xlink="http://www.w3.org/1999/xlink"><g id="_x36_7-hangouts"><g><g><g><path d="M256.352,16.379c-115.125,0-208.777,93.899-208.777,209.338      c0,104.103,77.545,192.57,178.949,207.249v61.909h14.912c119.156,0,223.693-125.79,223.693-269.158      C465.129,110.278,371.443,16.379,256.352,16.379L256.352,16.379z M256.352,16.379" style="fill:#5ACF5F;"/></g><path d="M137.045,165.904v89.72h44.742v44.86c44.736-12.475,44.736-41.602,44.736-41.602v-92.979H137.045z      M137.045,165.904" style="fill:#FCFCFC;"/><path d="M286.172,165.904v89.72h44.738v44.86c44.738-12.475,44.738-41.602,44.738-41.602v-92.979H286.172z      M286.172,165.904" style="fill:#FCFCFC;"/></g></g></g><g id="Layer_1"/></svg>