<?xml version="1.0" ?><!DOCTYPE svg  PUBLIC '-//W3C//DTD SVG 1.1//EN'  'http://www.w3.org/Graphics/SVG/1.1/DTD/svg11.dtd'><svg height="512px" style="enable-background:new 0 0 512 512;" version="1.1" viewBox="0 0 512 512" width="512px" xml:space="preserve" xmlns="http://www.w3.org/2000/svg" xmlns:xlink="http://www.w3.org/1999/xlink"><g id="_x31_04-lastfm"><g><g><g><path d="M420.992,229.174c-4.205-1.407-8.26-2.756-12.139-4.041      c-29.703-9.717-47.604-15.604-47.604-39.68c0-19.533,14.469-33.676,34.391-33.676c15.271,0,26.668,6.61,36.863,21.502      c0.957,1.376,2.775,1.885,4.236,1.073l29.973-15.935c0.807-0.42,1.436-1.169,1.674-2.092c0.232-0.935,0.15-1.885-0.271-2.724      c-16.074-29.73-39.223-44.172-70.801-44.172c-48.051,0-79.131,30.292-79.131,77.158c0,47.911,30.066,67.315,85.482,86.312      c32.092,11.151,46.313,17.043,46.313,40.85c0,26.762-23.17,45.991-54.789,44.856c-33.135-1.164-43.156-19.439-55.77-49.401      c-21.354-50.756-45.662-109.965-45.867-110.533c-24.371-58.621-72.719-92.202-132.634-92.202      c-79.129,0-143.521,67.083-143.521,149.561c0,82.419,64.393,149.503,143.521,149.503c43.154,0,83.626-19.922,111.005-54.705      c0.777-1.018,0.988-2.39,0.477-3.585l-18.068-43.48c-0.512-1.196-1.674-2.039-2.953-2.096c-1.313-0.061-2.48,0.688-3.076,1.853      c-17.086,34.003-50.582,55.12-87.384,55.12c-54.313,0-98.484-46.028-98.484-102.639s44.171-102.637,98.484-102.637      c39.544,0,75.755,24.432,90.162,60.92l44.766,106.315l5.158,11.926c20.227,49.082,49.955,71.091,96.518,71.27      c55.355,0,97.082-38.219,97.082-88.881C494.604,264.105,467.611,245.026,420.992,229.174L420.992,229.174z M420.992,229.174" style="fill:#FF5722;"/></g></g></g></g><g id="Layer_1"/></svg>