<?xml version="1.0" ?><!DOCTYPE svg  PUBLIC '-//W3C//DTD SVG 1.1//EN'  'http://www.w3.org/Graphics/SVG/1.1/DTD/svg11.dtd'><svg height="512px" style="enable-background:new 0 0 512 512;" version="1.1" viewBox="0 0 512 512" width="512px" xml:space="preserve" xmlns="http://www.w3.org/2000/svg" xmlns:xlink="http://www.w3.org/1999/xlink"><g id="_x36_5-msn"><g><g><g><path d="M196.357,16.75c0,0,167.025,19.622,85.387,300.647      c-12.881,44.438-55.172,177.854-145.791,177.854c-90.572-2.813-49.706-97.767-49.706-97.767s21.891-58.765,70.828-79.67      c32.127,14.028,74.211,31.64,73.256,30.717c0.955,0.923-118.293-64.959-118.293-182.25      C112.039,69.537,135.954,16.75,196.357,16.75L196.357,16.75z M196.357,16.75" style="fill:#03ACF8;"/><path d="M425.266,151.658c22.34,6.638,10.229,95.583-81.158,194.062      c-4.322,56.7-36.441,140.793-78.264,133.322c-43.059-13.701,17.748-132.31,31.771-164.308      C311.631,282.738,376.113,137.038,425.266,151.658L425.266,151.658z M425.266,151.658" style="fill:#03ACF8;"/></g></g></g></g><g id="Layer_1"/></svg>