<?xml version="1.0" ?><!DOCTYPE svg  PUBLIC '-//W3C//DTD SVG 1.1//EN'  'http://www.w3.org/Graphics/SVG/1.1/DTD/svg11.dtd'><svg height="512px" style="enable-background:new 0 0 512 512;" version="1.1" viewBox="0 0 512 512" width="512px" xml:space="preserve" xmlns="http://www.w3.org/2000/svg" xmlns:xlink="http://www.w3.org/1999/xlink"><g id="_x35_0-picasa"><g><g><path d="M375.299,49.019V345.72h101.797c11.211-27.726,17.508-57.955,17.508-89.72     C494.604,167.511,446.551,90.414,375.299,49.019L375.299,49.019z M375.299,49.019" style="fill:#FFC107;"/><path d="M345.475,34.304c-27.65-11.241-57.801-17.553-89.473-17.553c-28.754,0-56.189,5.352-81.724,14.713     L345.475,191.67V34.304z M345.475,34.304" style="fill:#F84437;"/><path d="M166.526,477.695c27.648,11.239,57.802,17.555,89.476,17.555     c88.25,0,165.139-48.183,206.418-119.629H166.526V477.695z M166.526,477.695" style="fill:#5ACF5F;"/><path d="M144.513,44.533C68.936,84.701,17.397,164.279,17.397,256c0,21.086,2.981,41.446,8.114,60.914     L226.887,121.6L144.513,44.533z M144.513,44.533" style="fill:#B82ED0;"/><path d="M136.699,462.977V250.708l-100.81,97.764C56.139,396.795,91.844,436.929,136.699,462.977     L136.699,462.977z M136.699,462.977" style="fill:#2299F8;"/></g></g></g><g id="Layer_1"/></svg>