<?xml version="1.0" ?><!DOCTYPE svg  PUBLIC '-//W3C//DTD SVG 1.1//EN'  'http://www.w3.org/Graphics/SVG/1.1/DTD/svg11.dtd'><svg height="512px" style="enable-background:new 0 0 512 512;" version="1.1" viewBox="0 0 512 512" width="512px" xml:space="preserve" xmlns="http://www.w3.org/2000/svg" xmlns:xlink="http://www.w3.org/1999/xlink"><g id="_x32_9-smugmug"><g><g><g><path d="M417.771,52.262c0,19.82-20.66,35.882-46.139,35.882c-25.484,0-46.141-16.063-46.141-35.882      c0-19.818,20.656-35.888,46.141-35.888C397.111,16.374,417.771,32.443,417.771,52.262L417.771,52.262z M417.771,52.262" style="fill:#9CDB53;"/><path d="M460.633,159.958H66.399c0,0-11.272,2.391-22.519,25.981      c-56.339,117.799-33.792,308.926,168.958,308.926c202.727,0,281.584-260.72,281.584-296.034      C494.422,163.45,460.633,159.958,460.633,159.958L460.633,159.958z M212.838,447.103c-42.737,0-99.849-10.429-129.38-60.462      c-31.969-54.248-22.214-130.987,1.641-178.839h361.542C435.193,255.653,366.564,447.103,212.838,447.103L212.838,447.103z       M212.838,447.103" style="fill:#9CDB53;"/></g><path d="M210.188,52.262c0,19.82-20.646,35.882-46.109,35.882c-25.463,0-46.111-16.063-46.111-35.882     c0-19.818,20.648-35.888,46.111-35.888C189.541,16.374,210.188,32.443,210.188,52.262L210.188,52.262z M210.188,52.262" style="fill:#9CDB53;"/></g></g></g><g id="Layer_1"/></svg>