<?xml version="1.0" ?><!DOCTYPE svg  PUBLIC '-//W3C//DTD SVG 1.1//EN'  'http://www.w3.org/Graphics/SVG/1.1/DTD/svg11.dtd'><svg height="512px" style="enable-background:new 0 0 512 512;" version="1.1" viewBox="0 0 512 512" width="512px" xml:space="preserve" xmlns="http://www.w3.org/2000/svg" xmlns:xlink="http://www.w3.org/1999/xlink"><g id="_x33_1-slideshare"><g><g><g><path d="M464.607,285.498h-29.826V91.112c0-24.731-20.068-44.854-44.738-44.854H121.618      c-24.665,0-44.736,20.123-44.736,44.854v194.386H47.059V91.112c0-41.209,33.459-74.765,74.559-74.765h268.425      c41.133,0,74.564,33.556,74.564,74.765V285.498z M464.607,285.498" style="fill:#DCE6EA;"/><path d="M472.066,260.739c-15.957,17.82-84.646,40.399-93.502,40.399h-75.277      c-16.828,0-45.188,4.459-45.188,15.137v136.13c0,12.441,17.236,42.464,69.521,42.464c52.283,0,65.975-62.052,65.975-72.696      v-75.634c37.191-19.589,75.277-30.264,93.502-65.284C504.246,248.271,487.988,242.951,472.066,260.739L472.066,260.739z       M472.066,260.739" style="fill:#2299F8;"/><path d="M243.066,376.74v75.634c0,12.473-19.475,30.271-45.152,30.271      c-25.684,0-75.279-36.459-75.279-60.504v-81.884c0,0-68.751-27.005-84.708-46.59c-15.956-19.595-23.92-27.604-19.472-39.122      c4.262-11.185,55.801,32.031,85.927,39.151c30.15,7.114,82.374,10.678,104.538,9.81c22.129-0.93,34.535,7.951,46.91,19.494      c0,0,14.049,22.999,48.438,22.67c34.387-0.327,42.352-27.065,54.404-29.545c10.166-2.122,15.088,2.124,15.088,11.601      c0,9.483-42.113,45.043-69.992,51.708C290.729,382.547,255.83,385.418,243.066,376.74L243.066,376.74z M243.066,376.74" style="fill:#FFC107;"/></g><path d="M381.1,223.477c0,29.238-23.596,52.932-52.701,52.932c-29.109,0-52.701-23.693-52.701-52.932     c0-29.235,23.592-52.936,52.701-52.936C357.504,170.541,381.1,194.241,381.1,223.477L381.1,223.477z M381.1,223.477" style="fill:#2299F8;"/><path d="M242.227,223.477c0,29.238-23.59,52.932-52.695,52.932c-29.105,0-52.702-23.693-52.702-52.932     c0-29.235,23.597-52.936,52.702-52.936C218.637,170.541,242.227,194.241,242.227,223.477L242.227,223.477z M242.227,223.477" style="fill:#FFC107;"/></g></g></g><g id="Layer_1"/></svg>