<?xml version="1.0" ?><!DOCTYPE svg  PUBLIC '-//W3C//DTD SVG 1.1//EN'  'http://www.w3.org/Graphics/SVG/1.1/DTD/svg11.dtd'><svg height="512px" style="enable-background:new 0 0 512 512;" version="1.1" viewBox="0 0 512 512" width="512px" xml:space="preserve" xmlns="http://www.w3.org/2000/svg" xmlns:xlink="http://www.w3.org/1999/xlink"><g id="_x33_0-tumblr"><g><g><path d="M285.766,225.944v109.574c0,27.634-0.297,43.781,2.568,51.675     c2.859,7.748,10.078,15.883,18.281,20.667c10.26,6.281,22.668,9.39,35.91,9.39c24.188,0,38.648-3.108,62.631-18.807v71.922     c-20.521,9.6-38.387,15.281-54.816,19.021c-16.404,4.037-34.326,5.864-53.508,5.864c-21.861,0-34.865-2.695-51.389-8.169     c-16.969-5.564-31.168-13.458-43.041-23.743c-12.076-10.168-19.977-21.023-24.605-32.569     c-4.711-11.451-6.919-28.231-6.919-50.209V212.876h-64.035v-67.801c18.849-6.188,39.731-14.89,53.212-26.283     c13.031-11.513,24.066-25.121,31.908-41.212c8.203-15.787,13.781-36.215,16.885-60.829h76.918v119.658h119.391v89.536H285.766z      M285.766,225.944" style="fill:#516874;"/></g></g></g><g id="Layer_1"/></svg>