<?xml version="1.0" ?><!DOCTYPE svg  PUBLIC '-//W3C//DTD SVG 1.1//EN'  'http://www.w3.org/Graphics/SVG/1.1/DTD/svg11.dtd'><svg height="512px" style="enable-background:new 0 0 512 512;" version="1.1" viewBox="0 0 512 512" width="512px" xml:space="preserve" xmlns="http://www.w3.org/2000/svg" xmlns:xlink="http://www.w3.org/1999/xlink"><g id="_x32_0-vimeo_x2C__video"><g><g><g><path d="M17.392,160.9l19.271,25.455c0,0,39.962-31.612,53.265-15.881      c13.486,15.881,64.515,206.558,81.395,241.818c14.737,30.892,55.625,71.652,100.303,42.584      c45.094-29.251,193.955-156.705,220.615-307.522C518.848-3.194,312.809,28.33,291.223,159.557      c54.338-32.719,83.625,13.403,55.771,65.527c-27.918,52.335-53.539,86.456-66.811,86.456c-13.031,0-23.354-35.11-38.627-96.062      c-15.654-63.127-15.654-176.948-81.148-164.03C98.487,63.71,17.392,160.9,17.392,160.9L17.392,160.9z M17.392,160.9" style="fill:#00CBE5;"/></g></g></g></g><g id="Layer_1"/></svg>