<?xml version="1.0" ?><!DOCTYPE svg  PUBLIC '-//W3C//DTD SVG 1.1//EN'  'http://www.w3.org/Graphics/SVG/1.1/DTD/svg11.dtd'><svg height="512px" style="enable-background:new 0 0 512 512;" version="1.1" viewBox="0 0 512 512" width="512px" xml:space="preserve" xmlns="http://www.w3.org/2000/svg" xmlns:xlink="http://www.w3.org/1999/xlink"><g id="_x31_-yelp"><g><g><g><path d="M137.144,38.542c24.249-18.99,70.862-24.399,90.043-20.695      c19.209,3.679,29.23,14.357,29.348,27.394l1.105,165.891c0.086,13.04-6.713,25.001-15.123,26.616      c-8.445,1.584-20.881-6.16-27.74-17.259L127.3,78.231C120.532,67.136,106.873,62.228,137.144,38.542L137.144,38.542z       M108.095,354.053l88.075-31.011c12.258-4.341,23.258-16.392,24.482-26.857c1.195-10.466-7.721-22.906-19.828-27.659      l-93.029-36.704c-12.107-4.78-26.095,6.526-29.765,25.006c0,0-2.208,64.385,0,77.694      C80.266,347.861,95.81,358.423,108.095,354.053L108.095,354.053z M261.725,369.573c0.238-13.066-6.742-24.348-15.566-25.147      c-8.828-0.812-22.852,6.666-31.229,16.62l-61.44,73.333c-8.354,9.962-4.21,33.347,7.992,37.806l64.241,22.184      c12.23,4.427,33.764-8.671,34.004-21.712L261.725,369.573z M414.396,352.497l-77.039-22.041      c-12.494-3.586-26.664-3.229-31.465,0.808c-4.797,3.977-3.609,16.633,2.688,28.048l48.619,88.553      c6.262,11.396,31.436,9.452,38.348-1.608c0,0,29.293-43.013,34.688-59.156C435.635,370.921,426.896,356.056,414.396,352.497      L414.396,352.497z M433.158,227.969c-3.457-11.219-27.557-44.232-40.592-55.476c-13.031-11.275-27.947-9.868-36.322,0.027      l-49.662,58.884c-8.412,9.9-10.678,25.633-5.07,34.842c5.605,9.24,20.545,14.476,33.254,11.636l85.869-15.854      C436.143,258.326,436.707,239.183,433.158,227.969L433.158,227.969z M433.158,227.969" style="fill:#F84437;"/></g></g></g></g><g id="Layer_1"/></svg>